<?xml version="1.0" standalone="no"?>
<!DOCTYPE svg PUBLIC "-//W3C//DTD SVG 20010904//EN"
 "http://www.w3.org/TR/2001/REC-SVG-20010904/DTD/svg10.dtd">
<svg version="1.0" xmlns="http://www.w3.org/2000/svg"
 width="256.000000pt" height="256.000000pt" viewBox="0 0 256.000000 256.000000"
 preserveAspectRatio="xMidYMid meet">
<metadata>
Created by potrace 1.11, written by Peter Selinger 2001-2013
</metadata>
<g transform="translate(0.000000,256.000000) scale(0.100000,-0.100000)"
fill="#000000" stroke="none">
<path d="M220 2168 c-14 -5 -36 -19 -48 -31 -54 -50 -52 -16 -49 -855 l2 -779
27 -35 c16 -21 44 -42 65 -49 30 -10 266 -13 1074 -13 1020 0 1036 0 1069 20
19 11 45 38 57 60 l23 39 -3 777 c-2 767 -2 777 -23 804 -11 15 -33 37 -48 48
-27 21 -34 21 -1074 22 -634 1 -1057 -2 -1072 -8z"/>
</g>
</svg>
